<?xml version="1.0" encoding="utf-8"?>
<!-- Generator: Adobe Illustrator 27.5.0, SVG Export Plug-In . SVG Version: 6.00 Build 0)  -->
<svg version="1.1" xmlns="http://www.w3.org/2000/svg" xmlns:xlink="http://www.w3.org/1999/xlink" x="0px" y="0px"
	 viewBox="0 0 500 500" style="enable-background:new 0 0 500 500;" xml:space="preserve">
<g id="BACKGROUND">
	<rect style="fill:#F1D5B1;" width="500" height="500"/>
</g>
<g id="OBJECTS">
	<g>
		<g>
			
				<ellipse transform="matrix(0.1619 -0.9868 0.9868 0.1619 -171.1996 442.0381)" style="fill:#EBA100;" cx="174.643" cy="321.81" rx="34.678" ry="34.678"/>
			<circle style="fill:#EBA100;" cx="183.318" cy="117.86" r="17.744"/>
			<circle style="fill:#EBA100;" cx="351.855" cy="223.063" r="17.744"/>
			<path style="fill:#ED7A00;" d="M346.451,119.315c-9.924-3.634-21.216-0.025-29.895,6.008
				c-8.678,6.033-15.529,14.284-23.349,21.395c-7.819,7.11-17.144,19.182-36.363,17.953c-12.528-0.801-23.771-7.6-35.729-11.424
				c-22.079-7.06-47.649-3.266-65.926,10.993c-18.277,14.259-28.236,38.926-23.695,61.658c4.54,22.732,24.018,42.054,46.988,45.171
				c14.661,1.99,29.351-2.161,43.929-4.693c14.577-2.532,30.633-3.174,43.059,4.858c13.189,8.524,19.715,25.234,33.535,32.69
				c9.516,5.134,21.846,4.794,30.863-1.172c9.017-5.966,14.174-17.422,12.299-28.07c-3.164-17.969-23.54-29.676-25.111-47.854
				c-0.835-9.665,4.055-19.001,10.374-26.363c6.318-7.361,14.107-13.318,20.739-20.397c8.216-8.77,14.764-19.776,15.409-31.776
				C364.222,136.291,357.736,123.448,346.451,119.315z"/>
		</g>
		<g>
			<path style="fill:#ED7A00;stroke:#4A2120;stroke-width:6;stroke-linecap:round;stroke-linejoin:round;stroke-miterlimit:10;" d="
				M266.956,78.738h-37.189c-0.838,0-1.482-1.061-1.365-2.248l0,0c0.566-5.726,3.993-9.983,8.036-9.983h23.846
				c4.044,0,7.47,4.257,8.036,9.983l0,0C268.438,77.677,267.794,78.738,266.956,78.738z"/>
			<g>
				<g>
					
						<path style="fill:#F1D5B1;stroke:#4A2120;stroke-width:6;stroke-linecap:round;stroke-linejoin:round;stroke-miterlimit:10;" d="
						M286.126,200.979c-12.519-38.976-19.153-74.104-22.412-108.735l-0.118-3.013h-31.204l-0.038,0.967
						c-3.259,34.631-11.938,71.805-24.457,110.78c-3.751,11.678-5.596,23.885-5.596,36.15l0,101.281
						c0,11.301,9.161,20.462,20.462,20.462h48.495c11.301,0,20.462-9.161,20.462-20.462l0-101.281
						C291.721,224.864,289.877,212.657,286.126,200.979z"/>
					
						<path style="fill:#CE3F00;stroke:#4A2120;stroke-width:6;stroke-linecap:round;stroke-linejoin:round;stroke-miterlimit:10;" d="
						M277.233,205.014c-5.112-18.384-13.73-39.607-16.247-52.712h-27.441c-2.812,13.24-11.741,34.676-16.756,52.712
						c-2.898,10.422-4.324,21.316-4.324,32.263v90.389c0,10.086,7.079,18.262,15.81,18.262h37.47c8.732,0,15.81-8.176,15.81-18.262
						v-90.389C281.557,226.33,280.132,215.436,277.233,205.014z"/>
					
						<path style="fill:#ED7A00;stroke:#4A2120;stroke-width:6;stroke-linecap:round;stroke-linejoin:round;stroke-miterlimit:10;" d="
						M241.012,179.314c6.115-0.112,12.217-0.757,18.262-1.657c2.908-0.433,5.806-0.931,8.696-1.478
						c-3.04-9.051-5.747-17.443-6.983-23.877h-27.441c-1.458,6.866-4.563,15.939-7.912,25.597
						C230.631,179.17,235.88,179.409,241.012,179.314z"/>
					<g>
						<path style="fill:#871109;" d="M231.301,232.501L231.301,232.501c-1.636,0-2.962-1.326-2.962-2.962v-12.95
							c0-1.636,1.326-2.962,2.962-2.962l0,0c1.636,0,2.962,1.326,2.962,2.962v12.95
							C234.263,231.174,232.937,232.501,231.301,232.501z"/>
						<path style="fill:#871109;" d="M231.301,283.681L231.301,283.681c-1.636,0-2.962-1.326-2.962-2.962v-12.95
							c0-1.636,1.326-2.962,2.962-2.962l0,0c1.636,0,2.962,1.326,2.962,2.962v12.95
							C234.263,282.355,232.937,283.681,231.301,283.681z"/>
						<path style="fill:#871109;" d="M264.455,283.681L264.455,283.681c-1.636,0-2.962-1.326-2.962-2.962v-12.95
							c0-1.636,1.326-2.962,2.962-2.962h0c1.636,0,2.962,1.326,2.962,2.962v12.95C267.417,282.355,266.091,283.681,264.455,283.681z
							"/>
						<path style="fill:#871109;" d="M264.455,231.697L264.455,231.697c-1.636,0-2.962-1.326-2.962-2.962v-12.95
							c0-1.636,1.326-2.962,2.962-2.962h0c1.636,0,2.962,1.326,2.962,2.962v12.95C267.417,230.371,266.091,231.697,264.455,231.697z
							"/>
						<path style="fill:#871109;" d="M266.716,330.235L266.716,330.235c-1.636,0-2.962-1.326-2.962-2.962v-12.95
							c0-1.636,1.326-2.962,2.962-2.962l0,0c1.636,0,2.962,1.326,2.962,2.962v12.95
							C269.678,328.909,268.352,330.235,266.716,330.235z"/>
						<path style="fill:#871109;" d="M247.332,258.553L247.332,258.553c-1.636,0-2.962-1.326-2.962-2.962v-12.95
							c0-1.636,1.326-2.962,2.962-2.962l0,0c1.636,0,2.962,1.326,2.962,2.962v12.95
							C250.294,257.227,248.968,258.553,247.332,258.553z"/>
						<path style="fill:#871109;" d="M247.332,206.183L247.332,206.183c-1.636,0-2.962-1.326-2.962-2.962v-12.95
							c0-1.636,1.326-2.962,2.962-2.962l0,0c1.636,0,2.962,1.326,2.962,2.962v12.95
							C250.294,204.857,248.968,206.183,247.332,206.183z"/>
						<path style="fill:#871109;" d="M247.332,304.25L247.332,304.25c-1.636,0-2.962-1.326-2.962-2.962v-12.95
							c0-1.636,1.326-2.962,2.962-2.962l0,0c1.636,0,2.962,1.326,2.962,2.962v12.95C250.294,302.924,248.968,304.25,247.332,304.25z
							"/>
						<path style="fill:#871109;" d="M227.307,330.235L227.307,330.235c-1.636,0-2.962-1.326-2.962-2.962v-12.95
							c0-1.636,1.326-2.962,2.962-2.962l0,0c1.636,0,2.962,1.326,2.962,2.962v12.95
							C230.269,328.909,228.943,330.235,227.307,330.235z"/>
					</g>
					
						<path style="fill:#F1D5B1;stroke:#4A2120;stroke-width:6;stroke-linecap:round;stroke-linejoin:round;stroke-miterlimit:10;" d="
						M270.083,101.098h-43.443c-0.273,0-0.483-0.368-0.445-0.779l1.205-12.972c0.031-0.337,0.221-0.588,0.445-0.588h41.033
						c0.224,0,0.413,0.251,0.445,0.588l1.205,12.972C270.565,100.73,270.356,101.098,270.083,101.098z"/>
					
						<path style="fill:#ED7A00;stroke:#4A2120;stroke-width:6;stroke-linecap:round;stroke-linejoin:round;stroke-miterlimit:10;" d="
						M269.857,89.043h-42.993c-0.969,0-1.916-0.963-2.01-2.061l0,0c-0.477-5.616,2.997-10.17,8.191-10.17h30.631
						c5.194,0,8.668,4.554,8.191,10.17l0,0C271.774,88.079,270.826,89.043,269.857,89.043z"/>
				</g>
				<path style="opacity:0.35;fill:#F1D5B1;" d="M260.626,201.713c8.552-1.698,11.438-11.683,11.197-19.37
					c-0.344-10.976-4.978-26.946-13.859-33.789c-4.488-3.458-11.402-1.529-12.885,4.348c-0.626,2.48-0.341,5.076-0.093,7.61
					c0.581,5.924,0.943,11.875,1.086,17.834c0.116,4.869,0.094,9.897,1.781,14.498c1.675,4.567,5.473,8.655,10.247,9.026
					C258.952,201.935,259.798,201.877,260.626,201.713z"/>
			</g>
			<g>
				
					<path style="fill:#EBA100;stroke:#4A2120;stroke-width:6;stroke-linecap:round;stroke-linejoin:round;stroke-miterlimit:10;" d="
					M247.702,270.323c-0.348,0.424-0.628,0.738-0.806,0.934c-0.008,0.009-0.008,0.009-0.017,0.009l-0.009,0.008
					c-0.059,0.059-0.127,0.085-0.204,0.085c-0.076,0-0.144-0.025-0.204-0.085l-0.008-0.008c-0.008,0-0.008,0-0.017-0.009
					c-0.178-0.195-0.458-0.509-0.806-0.934c0.424,0.348,0.738,0.628,0.934,0.806c0.008,0.009,0.008,0.009,0.008,0.017
					c0-0.008,0-0.008,0-0.017c0.008-0.263,0.034-0.679,0.093-1.214c0.06,0.535,0.085,0.951,0.093,1.214c0,0.009,0,0.009,0,0.009
					l0.008-0.009C246.964,270.951,247.286,270.671,247.702,270.323z"/>
				
					<path style="fill:#EBA100;stroke:#4A2120;stroke-width:6;stroke-linecap:round;stroke-linejoin:round;stroke-miterlimit:10;" d="
					M247.702,272.394c-0.416-0.348-0.738-0.628-0.934-0.806h-0.008c-0.008,0.263-0.034,0.679-0.093,1.214
					c-0.059-0.535-0.085-0.951-0.093-1.214c0-0.009,0-0.009,0-0.017c0,0.008,0,0.008-0.008,0.017
					c-0.195,0.178-0.509,0.458-0.934,0.806c0.348-0.416,0.628-0.738,0.806-0.934l0.008-0.009c0,0,0,0,0.008,0
					c0.059-0.068,0.136-0.093,0.212-0.093c0.077,0,0.153,0.025,0.212,0.093c0.008,0,0.008,0,0.008,0l0.008,0.009
					C247.074,271.655,247.354,271.978,247.702,272.394z"/>
				
					<path style="fill:#EBA100;stroke:#4A2120;stroke-width:6;stroke-linecap:round;stroke-linejoin:round;stroke-miterlimit:10;" d="
					M246.666,271.358c0,0.076-0.025,0.144-0.085,0.204l-0.008,0.009c0,0.008,0,0.008-0.008,0.017
					c-0.195,0.178-0.509,0.458-0.934,0.806c0.348-0.416,0.628-0.738,0.806-0.934l0.008-0.009c0,0,0,0-0.008,0
					c-0.272-0.017-0.688-0.034-1.231-0.093c0.543-0.051,0.968-0.085,1.231-0.093c0.008,0,0.008,0,0.017,0
					c-0.008,0-0.008,0-0.017-0.009c-0.178-0.195-0.458-0.509-0.806-0.934c0.424,0.348,0.738,0.628,0.934,0.806
					c0.008,0.009,0.008,0.009,0.008,0.017C246.641,271.205,246.666,271.282,246.666,271.358z"/>
				
					<path style="fill:#EBA100;stroke:#4A2120;stroke-width:6;stroke-linecap:round;stroke-linejoin:round;stroke-miterlimit:10;" d="
					M246.896,271.46c0.178,0.195,0.458,0.518,0.806,0.934c-0.416-0.348-0.738-0.628-0.934-0.806h-0.008c0-0.009,0-0.009,0-0.017
					c-0.068-0.059-0.093-0.136-0.093-0.212c0-0.076,0.026-0.153,0.093-0.212c0-0.008,0-0.008,0-0.008l0.008-0.009
					c0.195-0.178,0.518-0.458,0.934-0.806c-0.348,0.424-0.628,0.738-0.806,0.934c-0.008,0.009-0.008,0.009-0.017,0.009
					c0.008,0,0.008,0,0.017,0c0.263,0.008,0.688,0.043,1.231,0.093c-0.543,0.059-0.959,0.076-1.231,0.093c-0.008,0-0.008,0-0.008,0
					L246.896,271.46z"/>
				
					<path style="fill:#EBA100;stroke:#4A2120;stroke-width:6;stroke-linecap:round;stroke-linejoin:round;stroke-miterlimit:10;" d="
					M253.711,286.976c0,0.424-0.017,0.849-0.051,1.265c-0.56,7.104-5.627,13.012-6.765,14.243c-0.127,0.136-0.331,0.136-0.458,0
					c-1.137-1.231-6.205-7.138-6.765-14.243c-0.034-0.416-0.051-0.84-0.051-1.265c0-6.519,4.057-12.214,6.01-14.582
					c0.424-0.348,0.738-0.628,0.934-0.806c0.008-0.009,0.008-0.009,0.008-0.017c0,0.008,0,0.008,0,0.017
					c0.008,0.263,0.034,0.679,0.093,1.214c0.06-0.535,0.085-0.951,0.093-1.214h0.008c0.195,0.178,0.518,0.458,0.934,0.806
					C249.654,274.762,253.711,280.457,253.711,286.976z"/>
				
					<path style="fill:#EBA100;stroke:#4A2120;stroke-width:6;stroke-linecap:round;stroke-linejoin:round;stroke-miterlimit:10;" d="
					M231.049,278.403c6.519,0,12.214-4.057,14.582-6.009c-1.952,2.368-6.01,8.064-6.01,14.582c0,0.424,0.017,0.849,0.051,1.265
					c-5.415,4.626-13.173,5.22-14.854,5.288c-0.187,0.009-0.331-0.136-0.322-0.323c0.068-1.68,0.662-9.438,5.288-14.854
					C230.2,278.386,230.624,278.403,231.049,278.403z"/>
				
					<path style="fill:#EBA100;stroke:#4A2120;stroke-width:6;stroke-linecap:round;stroke-linejoin:round;stroke-miterlimit:10;" d="
					M246.76,271.57c0,0.008,0,0.008,0,0.017c-0.008,0.263-0.034,0.679-0.093,1.214c-0.059-0.535-0.085-0.951-0.093-1.214
					c0-0.009,0-0.009,0-0.017c0,0.008,0,0.008-0.008,0.017c-0.195,0.178-0.509,0.458-0.934,0.806
					c0.348-0.416,0.628-0.738,0.806-0.934l0.008-0.009c0,0,0,0-0.008,0c-0.272-0.017-0.688-0.034-1.231-0.093
					c0.543-0.051,0.968-0.085,1.231-0.093c0.008,0,0.008,0,0.017,0l0.008,0.008c0.076,0,0.144,0.034,0.204,0.085
					C246.717,271.409,246.76,271.486,246.76,271.57z"/>
				
					<path style="fill:#EBA100;stroke:#4A2120;stroke-width:6;stroke-linecap:round;stroke-linejoin:round;stroke-miterlimit:10;" d="
					M277.792,271.587c-1.231,1.137-7.138,6.205-14.243,6.765c-0.416,0.034-0.84,0.051-1.265,0.051
					c-6.519,0-12.214-4.057-14.582-6.009c-0.348-0.416-0.628-0.738-0.806-0.934l-0.008-0.009c0,0,0,0,0.008,0
					c0.272-0.017,0.688-0.034,1.231-0.093c-0.543-0.051-0.967-0.085-1.231-0.093c-0.008,0-0.008,0-0.017,0
					c0.008,0,0.008,0,0.017-0.009c0.178-0.195,0.458-0.509,0.806-0.934c2.368-1.952,8.063-6.009,14.582-6.009
					c0.424,0,0.849,0.017,1.265,0.051c7.104,0.56,13.012,5.628,14.243,6.765C277.927,271.256,277.927,271.46,277.792,271.587z"/>
				
					<path style="fill:#EBA100;stroke:#4A2120;stroke-width:6;stroke-linecap:round;stroke-linejoin:round;stroke-miterlimit:10;" d="
					M246.768,271.129c0.195-0.178,0.518-0.458,0.934-0.806c-0.348,0.424-0.628,0.738-0.806,0.934
					c-0.008,0.009-0.008,0.009-0.017,0.009c0.008,0,0.008,0,0.017,0c0.263,0.008,0.688,0.043,1.231,0.093
					c-0.543,0.059-0.959,0.076-1.231,0.093c-0.008,0-0.008,0-0.008,0s0,0-0.008,0c-0.085,0-0.161-0.043-0.212-0.093
					c-0.059-0.059-0.085-0.136-0.093-0.212c0-0.008,0-0.008,0-0.017c0.008-0.263,0.034-0.679,0.093-1.214
					c0.06,0.535,0.085,0.951,0.093,1.214c0,0.009,0,0.009,0,0.009L246.768,271.129z"/>
				
					<path style="fill:#EBA100;stroke:#4A2120;stroke-width:6;stroke-linecap:round;stroke-linejoin:round;stroke-miterlimit:10;" d="
					M268.837,249.51c-0.068,1.681-0.662,9.439-5.288,14.854c-0.416-0.034-0.84-0.051-1.265-0.051
					c-6.519,0-12.214,4.057-14.582,6.009c1.952-2.368,6.009-8.064,6.009-14.582c0-0.424-0.017-0.849-0.051-1.265
					c5.415-4.626,13.173-5.22,14.854-5.288C268.701,249.179,268.845,249.324,268.837,249.51z"/>
				
					<path style="fill:#EBA100;stroke:#4A2120;stroke-width:6;stroke-linecap:round;stroke-linejoin:round;stroke-miterlimit:10;" d="
					M253.711,255.74c0,6.519-4.057,12.214-6.009,14.582c-0.416,0.348-0.738,0.628-0.934,0.806l-0.008,0.009c0,0,0,0,0-0.009
					c-0.008-0.263-0.034-0.679-0.093-1.214c-0.059,0.535-0.085,0.951-0.093,1.214c0,0.009,0,0.009,0,0.017
					c0-0.008,0-0.008-0.008-0.017c-0.195-0.178-0.509-0.458-0.934-0.806c-1.952-2.368-6.01-8.064-6.01-14.582
					c0-0.424,0.017-0.849,0.051-1.265c0.56-7.104,5.628-13.004,6.765-14.243c0.127-0.136,0.331-0.136,0.458,0
					c1.137,1.239,6.205,7.138,6.765,14.243C253.694,254.892,253.711,255.316,253.711,255.74z"/>
				
					<path style="fill:#EBA100;stroke:#4A2120;stroke-width:6;stroke-linecap:round;stroke-linejoin:round;stroke-miterlimit:10;" d="
					M246.437,271.452c0.008,0,0.008,0,0.008,0l-0.008,0.009c-0.178,0.195-0.458,0.518-0.806,0.934
					c-2.368,1.952-8.064,6.009-14.582,6.009c-0.424,0-0.849-0.017-1.265-0.051c-7.105-0.56-13.004-5.628-14.243-6.765
					c-0.136-0.127-0.136-0.331,0-0.458c1.239-1.137,7.138-6.205,14.243-6.765c0.416-0.034,0.84-0.051,1.265-0.051
					c6.519,0,12.214,4.057,14.582,6.009c0.348,0.424,0.628,0.738,0.806,0.934c0.008,0.009,0.008,0.009,0.017,0.009
					c-0.008,0-0.008,0-0.017,0c-0.263,0.008-0.688,0.043-1.231,0.093C245.75,271.418,246.166,271.435,246.437,271.452z"/>
				
					<path style="fill:#EBA100;stroke:#4A2120;stroke-width:6;stroke-linecap:round;stroke-linejoin:round;stroke-miterlimit:10;" d="
					M239.621,255.74c0,6.519,4.057,12.214,6.01,14.582c-2.368-1.952-8.064-6.009-14.582-6.009c-0.424,0-0.849,0.017-1.265,0.051
					c-4.626-5.415-5.22-13.173-5.288-14.854c-0.009-0.187,0.136-0.331,0.322-0.322c1.681,0.068,9.439,0.662,14.854,5.288
					C239.638,254.892,239.621,255.316,239.621,255.74z"/>
				
					<path style="fill:#EBA100;stroke:#4A2120;stroke-width:6;stroke-linecap:round;stroke-linejoin:round;stroke-miterlimit:10;" d="
					M246.76,271.129c0,0.009,0,0.009,0,0.009s0,0,0,0.008c0,0.076-0.034,0.161-0.093,0.212c-0.051,0.059-0.136,0.093-0.212,0.093
					c-0.008,0-0.008,0-0.008,0s0,0-0.008,0c-0.272-0.017-0.688-0.034-1.231-0.093c0.543-0.051,0.968-0.085,1.231-0.093
					c0.008,0,0.008,0,0.017,0c-0.008,0-0.008,0-0.017-0.009c-0.178-0.195-0.458-0.509-0.806-0.934
					c0.424,0.348,0.738,0.628,0.934,0.806c0.008,0.009,0.008,0.009,0.008,0.017c0-0.008,0-0.008,0-0.017
					c0.008-0.263,0.034-0.679,0.093-1.214C246.726,270.45,246.751,270.866,246.76,271.129z"/>
				
					<path style="fill:#EBA100;stroke:#4A2120;stroke-width:6;stroke-linecap:round;stroke-linejoin:round;stroke-miterlimit:10;" d="
					M246.896,271.46c0.178,0.195,0.458,0.518,0.806,0.934c-0.416-0.348-0.738-0.628-0.934-0.806h-0.008
					c-0.008,0.263-0.034,0.679-0.093,1.214c-0.059-0.535-0.085-0.951-0.093-1.214c0-0.009,0-0.009,0-0.017l0.008-0.009
					c0-0.076,0.034-0.153,0.085-0.204c0.051-0.051,0.127-0.085,0.204-0.085l0.009-0.008c0.008,0,0.008,0,0.017,0
					c0.263,0.008,0.688,0.043,1.231,0.093c-0.543,0.059-0.959,0.076-1.231,0.093c-0.008,0-0.008,0-0.008,0L246.896,271.46z"/>
				
					<path style="fill:#EBA100;stroke:#4A2120;stroke-width:6;stroke-linecap:round;stroke-linejoin:round;stroke-miterlimit:10;" d="
					M268.837,293.206c0.008,0.187-0.136,0.331-0.323,0.323c-1.681-0.068-9.439-0.662-14.854-5.288
					c0.034-0.416,0.051-0.84,0.051-1.265c0-6.519-4.057-12.214-6.009-14.582c2.368,1.952,8.063,6.009,14.582,6.009
					c0.424,0,0.849-0.017,1.265-0.051C268.175,283.768,268.769,291.526,268.837,293.206z"/>
			</g>
		</g>
	</g>
</g>
<g id="TEXT">
	<g>
		<g>
			
				<text transform="matrix(1 0 0 1 148.0036 427.9072)" style="fill:#4A2120; font-family:'Montserrat-Bold'; font-size:21px; letter-spacing:7;">Tagline Here</text>
		</g>
		
			<text transform="matrix(1 0 0 1 139.9484 402.2781)" style="fill:#4A2120; font-family:'Montserrat-Black'; font-size:39.6732px; letter-spacing:2;">kombucha</text>
	</g>
</g>
</svg>
